<?xml version="1.0" standalone="no"?>
<!DOCTYPE svg PUBLIC "-//W3C//DTD SVG 1.1//EN" "http://www.w3.org/Graphics/SVG/1.1/DTD/svg11.dtd" >
<svg xmlns="http://www.w3.org/2000/svg" xmlns:xlink="http://www.w3.org/1999/xlink" version="1.1">
<metadata>
Created by FontForge 20190801 at Mon Apr 26 08:52:00 2021
 By www-data
Copyright (c) 2020 by Kana Widana. All rights reserved.
</metadata>
<defs>
<font id="KenokyLight3zezL" horiz-adv-x="350" >
  <font-face 
    font-family="KenokyLight3zezL"
    font-weight="300"
    font-stretch="normal"
    units-per-em="1000"
    panose-1="0 0 4 0 0 0 0 0 0 0"
    ascent="800"
    descent="-200"
    x-height="498"
    cap-height="700"
    bbox="-106 -330.033 1171 891"
    underline-thickness="50"
    underline-position="-100"
    unicode-range="U+0020-E04A"
  />
<missing-glyph horiz-adv-x="500" 
d="M410 -200h-317v1000h317v-1000zM168 733v-33h65v-37h-66v-33h166v33h-66v37h66v33h-165zM167 604v-104h166v34h-66v70h-100zM233 534h-33v36h33v-36zM167 473v-33h66v-37h-66v-33h100v70h66v33h-166zM300 413v-66h-133v-34h166v100h-33zM233 291v-56h34v23h33v-47h-100
v80h-33v-113h166v113h-100zM167 118v-113h166v113h-166zM300 38h-100v47h100v-47zM167 -18v-33h70l-70 -47v-33h166v33h-102l70 47h32v33h-166z" />
    <glyph glyph-name=".notdef" horiz-adv-x="500" 
d="M410 -200h-317v1000h317v-1000zM168 733v-33h65v-37h-66v-33h166v33h-66v37h66v33h-165zM167 604v-104h166v34h-66v70h-100zM233 534h-33v36h33v-36zM167 473v-33h66v-37h-66v-33h100v70h66v33h-166zM300 413v-66h-133v-34h166v100h-33zM233 291v-56h34v23h33v-47h-100
v80h-33v-113h166v113h-100zM167 118v-113h166v113h-166zM300 38h-100v47h100v-47zM167 -18v-33h70l-70 -47v-33h166v33h-102l70 47h32v33h-166z" />
    <glyph glyph-name=".null" horiz-adv-x="0" 
 />
    <glyph glyph-name="nonmarkingreturn" horiz-adv-x="333" 
 />
    <glyph glyph-name="space" unicode=" " horiz-adv-x="200" 
 />
    <glyph glyph-name="exclam" unicode="!" horiz-adv-x="173" 
d="M65.5 382.5q-13.5 97.5 -33.5 182.5q-12 55 -12 72q0 22 13 42q9 13 24 20t31 7q18 0 33.5 -8t22.5 -22q9 -19 9 -43q0 -23 -11 -75q-17 -85 -29 -180t-19 -252h-13q-2 159 -15.5 256.5zM51.5 11.5q-14.5 14.5 -14.5 33.5t14 33t34 14q19 0 33 -14t14 -33t-14 -33.5
t-33 -14.5t-33.5 14.5z" />
    <glyph glyph-name="quotedbl" unicode="&#x22;" horiz-adv-x="225" 
d="M20 700h75v-122h-75v122zM131 700h74v-122h-74v122z" />
    <glyph glyph-name="numbersign" unicode="#" horiz-adv-x="665" 
d="M645 473h-92l-57 -256h102v-10h-105l-46 -207h-82l47 207h-231l-46 -207h-83l47 207h-79v10h81l58 256h-122v10h125l49 217h81l-49 -217h232l49 217h80l-49 -217h90v-10zM414 217l58 256h-231l-57 -256h230z" />
    <glyph glyph-name="dollar" unicode="$" horiz-adv-x="517" 
d="M497 181q0 -68 -54 -119t-160 -61v-79h-10v78q-10 -1 -31 -1q-63 0 -107.5 10t-62.5 23l-33 -33l-19 156h9q21 -73 76 -109.5t137 -36.5q16 0 31 3v300l-41 19q-63 28 -102 50.5t-66 57.5t-27 84q0 51 29.5 90.5t81 61.5t115.5 25q7 0 10 1v74h10v-74q42 1 72 -6.5
t65 -19.5l24 22l23 -133h-9q-13 61 -57 94t-105 33h-13v-293l20 -9q76 -36 119.5 -66t62.5 -77q12 -31 12 -65zM176 460q35 -28 97 -58v288q-67 -6 -105 -43.5t-38 -89.5q0 -15 3 -30q8 -39 43 -67zM369 67q33 40 33 90q0 35 -16 67q-12 25 -38 45t-65 38v-293q53 13 86 53z
" />
    <glyph glyph-name="percent" unicode="%" horiz-adv-x="917" 
d="M219 314q-61 0 -106.5 29.5t-69.5 77t-24 98.5q0 48 21 89t63.5 66.5t104.5 25.5q59 0 101 -28.5t64 -75t22 -97.5q0 -72 -40.5 -125t-114.5 -59q-7 -1 -21 -1zM658 700h46l-457 -700h-48zM296 375q20 45 20 107q0 52 -13.5 99.5t-40.5 77.5t-65 30q-48 0 -73.5 -45.5
t-25.5 -112.5q0 -54 17 -104t49 -79t76 -23q36 5 56 50zM722 -2q-61 0 -106.5 29.5t-69.5 77t-24 98.5q0 48 21 89t63.5 66.5t104.5 25.5q59 0 101 -28.5t64 -75t22 -97.5q0 -72 -40.5 -125t-114.5 -59q-7 -1 -21 -1zM799 59q20 45 20 107q0 52 -13.5 99.5t-40.5 77.5
t-65 30q-48 0 -73.5 -45.5t-25.5 -112.5q0 -54 17 -104t49 -79t76 -23q36 5 56 50z" />
    <glyph glyph-name="ampersand" unicode="&#x26;" horiz-adv-x="702" 
d="M599 0q-4 36 -57 91q-74 -91 -220 -102q-12 -1 -35 -1q-79 0 -140 25.5t-94 68.5t-33 93q0 44 27 86q23 35 63.5 61.5t100.5 53.5q-53 51 -82 95.5t-29 84.5q0 56 38.5 88.5t89.5 45t94 12.5q46 0 91 -15t74.5 -47.5t29.5 -79.5q0 -45 -26 -79t-65.5 -58.5t-100.5 -52.5
q27 -25 65.5 -56.5t54.5 -44.5l70 -57q6 42 4 72q0 13 -8 23t-38 12v5h179v-5q-30 -2 -38 -12t-8 -23q-2 -73 -26 -128q48 -45 74.5 -83.5t27.5 -72.5h-83zM283 408q79 37 121.5 73t42.5 90q0 27 -13.5 55t-42.5 47.5t-72 19.5q-51 0 -92.5 -25.5t-41.5 -87.5q0 -76 98 -172
zM496 135q-31 28 -115 95q-84 68 -127 106q-48 -23 -81 -46t-50 -51q-24 -38 -24 -79q0 -43 26.5 -80t71 -59t96.5 -22q9 0 29 2q127 15 174 134z" />
    <glyph glyph-name="quotesingle" unicode="'" horiz-adv-x="115" 
d="M20 700h75v-122h-75v122z" />
    <glyph glyph-name="parenleft" unicode="(" horiz-adv-x="313" 
d="M270 -150q-80 0 -137 59t-85.5 155.5t-28.5 205.5q0 112 30 211.5t88.5 160t140.5 59.5l-1 -11q-49 0 -84 -57.5t-53 -150.5t-18 -198q0 -110 19.5 -207t58 -157t93.5 -59l-1 -10q-7 -1 -22 -1z" />
    <glyph glyph-name="parenright" unicode=")" horiz-adv-x="312" 
d="M113.5 -80q38.5 60 58 157t19.5 207q0 105 -18 198t-53 150.5t-84 57.5l-1 11q83 0 141 -59t86.5 -155.5t28.5 -207.5t-28.5 -209.5t-84 -159.5t-132.5 -61q-7 0 -25 2l-1 10q55 -1 93.5 59z" />
    <glyph glyph-name="asterisk" unicode="*" horiz-adv-x="280" 
d="M62.5 473q-13.5 9 -13.5 21t4.5 17t17.5 11q17 10 30.5 20.5t29.5 32.5q-24 12 -41 15.5t-36 4.5q-14 1 -20.5 3.5t-10.5 11.5q-3 6 -3 12q0 11 7.5 20t17.5 9t15 -3.5t12 -13.5q12 -15 24.5 -26t35.5 -25q-1 29 -5 45.5t-12 37.5q-6 16 -6 21q0 6 3 12q6 11 25 11
q18 0 25 -10q3 -6 3 -11q0 -7 -7 -23q-9 -21 -13.5 -38.5t-5.5 -45.5q22 11 36 22.5t28 28.5q9 11 15.5 16.5t14.5 5.5q10 1 19 -8.5t9 -20.5q0 -7 -5 -12t-14.5 -8t-20.5 -5q-23 -3 -40 -8t-39 -18q33 -35 68 -49q11 -4 16 -8t8 -12t-2.5 -18t-15.5 -16t-18 -2
q-8 3 -11 8.5t-8 18.5q-5 17 -14 34t-29 39q-15 -22 -21 -38.5t-9 -34.5q-2 -14 -5 -20t-14 -9q-11 -4 -24.5 5z" />
    <glyph glyph-name="plus" unicode="+" 
d="M330 310v-39h-136v-134h-39v135h-135v38h136v137h38v-137h136z" />
    <glyph glyph-name="comma" unicode="," horiz-adv-x="191" 
d="M86.5 389.5q-14.5 14.5 -14.5 35.5q0 20 14.5 34.5t35.5 14.5q20 0 34.5 -14.5t14.5 -34.5q0 -21 -14.5 -35.5t-34.5 -14.5q-21 0 -35.5 14.5zM63 54l83 1l-66 -111h-60z" />
    <glyph glyph-name="hyphen" unicode="-" 
d="M20 272v38h310v-39z" />
    <glyph glyph-name="period" unicode="." horiz-adv-x="139" 
d="M34.5 13q-14.5 15 -14.5 35t14.5 34.5t35.5 14.5q20 0 34.5 -14.5t14.5 -34.5t-14.5 -35t-34.5 -15q-21 0 -35.5 15z" />
    <glyph glyph-name="slash" unicode="/" horiz-adv-x="413" 
d="M312 700h81l-290 -831h-83z" />
    <glyph glyph-name="zero" unicode="0" horiz-adv-x="535" 
d="M151.5 42.5q-64.5 54.5 -98 143.5t-33.5 187q0 87 26.5 162t80.5 120.5t131 45.5q82 0 140 -54t87.5 -141t29.5 -183q0 -86 -24 -160.5t-71.5 -121t-114.5 -49.5q-89 -4 -153.5 50.5zM383.5 93.5q28.5 89.5 28.5 215.5q0 96 -17.5 183t-52.5 142.5t-85 56.5
q-65 1 -99 -81.5t-34 -205.5q0 -99 22 -193t63 -152.5t95 -56.5q51 2 79.5 91.5z" />
    <glyph glyph-name="one" unicode="1" horiz-adv-x="223" 
d="M165 16.5q8 -10.5 38 -12.5v-5h-179v5q30 2 38 12.5t8 22.5v574h-50v10q39 10 78 35.5t51 46.5h8v-666q0 -12 8 -22.5z" />
    <glyph glyph-name="two" unicode="2" horiz-adv-x="514" 
d="M20 65q0 56 25.5 100t62.5 76t99 76q57 39 91 67.5t56.5 66t22.5 83.5q0 64 -40 108.5t-113 44.5q-40 0 -78.5 -22t-66.5 -59t-37 -79h-9l21 163l26 -22q83 31 137 32q76 3 135.5 -18t92.5 -63t33 -100q0 -55 -31.5 -99.5t-77 -78t-120.5 -78.5q-71 -43 -112 -72.5
t-69 -67.5t-28 -84q0 -11 1 -17q38 -6 112 -6q119 0 215.5 25t116.5 87h9l-32 -128l-434 1q-8 31 -8 64z" />
    <glyph glyph-name="three" unicode="3" horiz-adv-x="520" 
d="M148.5 8.5q-56.5 11.5 -81.5 20.5l-26 -22l-21 163h9q9 -42 39 -80t72.5 -60t86.5 -18q54 4 94.5 32.5t62 71.5t21.5 89q0 49 -25 90.5t-76.5 64.5t-127.5 18v17q56 8 95.5 33.5t59.5 61t20 72.5q0 53 -37 89.5t-102 35.5q-66 -1 -114 -43.5t-62 -107.5h-9l21 163l26 -22
q19 7 70.5 15.5t101.5 7.5q59 0 104 -23t69.5 -60t24.5 -77q0 -55 -46 -97.5t-136 -53.5q13 2 37 2q62 0 108 -27t70 -71t24 -93q0 -51 -26.5 -96.5t-80.5 -74t-133 -30.5q-56 -2 -112.5 9.5z" />
    <glyph glyph-name="four" unicode="4" horiz-adv-x="548" 
d="M528 276v-121h-7q0 15 -5.5 34t-17.5 19h-52v-168q0 -12 8 -22.5t38 -12.5v-5h-178v5q46 3 46 32v171h-340v10q16 25 64 96q56 82 88 136t54 117.5t22 132.5q0 22 12 34t29 12q20 0 33 -15.5t9 -41.5q-10 -63 -71.5 -160.5t-166.5 -241.5l-50 -69h317l-1 266h86l1 -266
h52q12 0 17.5 21.5t5.5 36.5h7z" />
    <glyph glyph-name="five" unicode="5" horiz-adv-x="528" 
d="M135.5 10.5q-45.5 10.5 -68.5 19.5l-26 -22l-21 163h9q9 -42 38 -79t71.5 -58.5t88.5 -20.5q61 2 104 34.5t64.5 85.5t19.5 115q-1 68 -30.5 117t-75 74t-95.5 25q-44 0 -82.5 -20t-63.5 -58h-20q9 72 62 310q102 -25 189 -25q93 0 132 31q1 -6 1 -16q0 -68 -107 -68
q-80 0 -196 34q-9 -23 -29 -110.5t-25 -117.5q29 30 77.5 47.5t103.5 17.5q65 0 122.5 -25.5t93.5 -79t36 -134.5q0 -74 -34.5 -131t-99 -88t-152.5 -31q-41 0 -86.5 10.5z" />
    <glyph glyph-name="six" unicode="6" horiz-adv-x="513" 
d="M137.5 35q-53.5 35 -82.5 93.5t-33 130.5q-2 32 -2 48q0 104 30 195t92 148t155 58q45 0 73 -9.5t38 -24.5q6 -9 6 -16q0 -10 -8.5 -17t-20.5 -7q-21 0 -32 21q-1 3 -6 15.5t-18.5 19t-36.5 6.5q-54 0 -93.5 -48.5t-61.5 -125.5t-27 -162q14 27 30 49.5t49.5 44.5
t82.5 23q69 2 119 -31.5t76 -88.5t26 -118q0 -62 -25.5 -116.5t-77.5 -88.5t-125 -34q-74 0 -127.5 35zM341.5 44.5q31.5 34.5 48.5 90t17 115.5q0 88 -34.5 150t-100.5 63q-42 1 -81.5 -23t-62.5 -71t-18 -111q8 -109 44.5 -178.5t113.5 -69.5q42 0 73.5 34.5z" />
    <glyph glyph-name="seven" unicode="7" horiz-adv-x="450" 
d="M137.5 185q21.5 60 54.5 111t87 124q62 83 94.5 137.5t39.5 109.5q-56 8 -116 8q-94 0 -169.5 -25t-98.5 -87h-9l23 137l387 -1v-32q-12 -57 -35.5 -105t-62.5 -113q-35 -59 -55.5 -99.5t-34.5 -92t-14 -111.5q0 -29 5 -69q1 -6 1 -18q0 -31 -14.5 -47.5t-36.5 -16.5
q-23 0 -42 18.5t-21 48.5q-4 63 17.5 123z" />
    <glyph glyph-name="eight" unicode="8" horiz-adv-x="510" 
d="M134 16.5q-52 20.5 -82.5 56.5t-30.5 78q0 43 23.5 77t61.5 61.5t100 62.5q-79 49 -122 97t-40 110q2 38 27.5 71.5t71 53t103.5 19.5q60 0 105 -19.5t69.5 -53t24.5 -75.5t-22.5 -72t-54.5 -49t-85 -44q85 -48 141 -96t64 -110q2 -16 2 -23q0 -78 -69 -122t-172 -43
q-63 0 -115 20.5zM352 468.5q26 40.5 26 93.5q0 38 -18.5 67.5t-49 46t-64.5 17.5q-57 1 -89.5 -33t-32.5 -86q0 -55 37.5 -95t110.5 -83q54 32 80 72.5zM324 22q36 17 58 47.5t22 69.5q0 19 -6 40q-9 33 -36 62t-58.5 50.5t-86.5 54.5q-60 -44 -88 -84.5t-28 -97.5
q0 -67 40 -112t108 -46q39 -1 75 16z" />
    <glyph glyph-name="nine" unicode="9" horiz-adv-x="516" 
d="M378 669q54 -37 82 -96.5t33 -127.5q2 -19 2 -59q0 -100 -28 -188.5t-89 -145.5t-153 -60q-56 -3 -89.5 12.5t-33.5 38.5q0 10 8.5 16.5t19.5 6.5q24 0 34 -23q7 -15 12 -22t16.5 -12t33.5 -5q57 0 96.5 49t60 126t23.5 164q-20 -42 -55.5 -79.5t-104.5 -40.5
q-71 -3 -122 30.5t-77.5 90t-26.5 121.5q0 63 25.5 118t76.5 89t124 34q78 0 132 -37zM151 634.5q-30 -61.5 -30 -149.5q0 -61 14.5 -116.5t43 -92t67.5 -39.5q39 -4 75.5 17.5t60 64.5t23.5 100q0 17 -1 26q-10 110 -48.5 180t-117.5 71q-57 0 -87 -61.5z" />
    <glyph glyph-name="colon" unicode=":" horiz-adv-x="143" 
d="M37.5 402q-14.5 15 -14.5 35t14.5 34.5t35.5 14.5q20 0 34.5 -14.5t14.5 -34.5t-14.5 -35t-34.5 -15q-21 0 -35.5 15zM39.5 63.5q-14.5 14.5 -14.5 34.5t14.5 34.5t35.5 14.5q20 0 34.5 -14.5t14.5 -34.5t-14.5 -34.5t-34.5 -14.5q-21 0 -35.5 14.5z" />
    <glyph glyph-name="semicolon" unicode=";" horiz-adv-x="166" 
d="M63 54l83 1l-66 -111h-60z" />
    <glyph glyph-name="less" unicode="&#x3c;" horiz-adv-x="385" 
d="M20 265v29l345 160v-58l-256 -118l255 -126v-60z" />
    <glyph glyph-name="equal" unicode="=" 
d="M20 332v38h310v-39zM20 229v38h310v-39z" />
    <glyph glyph-name="greater" unicode="&#x3e;" horiz-adv-x="388" 
d="M24 152l255 126l-258 118l-1 62l348 -164v-29l-344 -178v65z" />
    <glyph glyph-name="question" unicode="?" horiz-adv-x="486" 
d="M165 171q0 47 14.5 79.5t35 53t55.5 45.5q33 25 52.5 43.5t33 48t13.5 71.5q0 73 -40 125t-119 52q-39 0 -77.5 -22.5t-66.5 -60t-37 -79.5h-9l21 163l26 -22q96 34 148 34q65 0 122 -20.5t93 -65.5t36 -114q0 -47 -19.5 -79.5t-47.5 -53t-75 -46.5q-49 -27 -78 -48
t-48.5 -55t-18.5 -84h-12q-2 26 -2 35zM148 12q-14 14 -14 33q0 20 14 34t33 14t33 -14t14 -34q0 -19 -14 -33t-33 -14t-33 14z" />
    <glyph glyph-name="at" unicode="@" horiz-adv-x="978" 
d="M750.5 652.5q100.5 -49.5 154 -134.5t53.5 -193q0 -98 -41.5 -181t-103.5 -131.5t-120 -49.5q-6 -1 -17 -1q-119 0 -119 157q0 14 2 42q-108 -59 -192 -59q-71 0 -112 40t-41 110q0 66 33 123t88.5 90.5t121.5 33.5q90 0 124 -59l1 12q2 24 22.5 38.5t58.5 13.5
q-5 -51 -8 -100q-5 -97 -14 -190q-10 -100 -10 -147t10.5 -69.5t36.5 -23.5q39 -1 86 46t80 127.5t33 175.5q0 101 -46 184.5t-129 132.5t-188 49q-107 0 -203 -56.5t-154.5 -153t-58.5 -210.5q0 -115 51 -192t132 -113.5t174 -36.5q14 0 42 2v-33q-138 -3 -245.5 34
t-169.5 119.5t-62 210.5q0 117 57 219t169 163.5t268 60.5q136 -1 236.5 -50.5zM315.5 156.5q29.5 -34.5 85.5 -34.5q67 0 159 49l20 258q-26 52 -98 60q-5 1 -15 1q-52 0 -93 -37.5t-64.5 -93.5t-23.5 -108q0 -60 29.5 -94.5z" />
    <glyph glyph-name="A" unicode="A" horiz-adv-x="743" 
d="M677 21q16 -12 46 -16v-5h-196v4q38 8 38 34q0 11 -4 20l-80 203h-309l-77 -211q-2 -6 -2 -9q0 -13 12.5 -23t32.5 -14v-4h-118v5q49 6 64 49l230 629l-7 17h88l254 -638q12 -29 28 -41zM176 271h301l-156 394z" />
    <glyph glyph-name="B" unicode="B" horiz-adv-x="643" 
d="M508.5 350q55.5 -28 85 -71t29.5 -90q0 -50 -33.5 -92.5t-102.5 -69.5t-171 -27l-176 1h-120v5q30 2 38 12.5t8 22.5v618q0 13 -8 23t-38 12v5h120l196 1q73 0 124.5 -23.5t78 -61t26.5 -79.5q0 -38 -21 -71t-63 -56t-102 -28q74 -3 129.5 -31zM251 690q-41 0 -63.5 -4.5
t-33.5 -17.5q-1 -4 -1 -9v-272h189q43 0 74.5 20.5t47.5 54.5t16 72q0 40 -18 75t-54.5 57.5t-87.5 22.5zM437.5 34.5q49.5 25.5 74 67t24.5 89.5q0 47 -23 89.5t-67 69t-104 26.5l-189 1v-336v-5q16 -17 51.5 -21.5t68.5 -5t43 -0.5q72 0 121.5 25.5z" />
    <glyph glyph-name="C" unicode="C" horiz-adv-x="572" 
d="M183 39.5q-81 48.5 -122 130.5t-41 176q0 93 40 175.5t119 133.5t188 50q69 0 128 -28l19 16l38 -156h-9q-19 73 -67.5 115.5t-108.5 42.5q-80 0 -138.5 -49.5t-89 -129.5t-30.5 -170q0 -89 30 -166.5t91 -126t149 -49.5q42 0 75.5 26t54 59t27.5 56h8l-21 -145l-27 24
q-3 -1 -33.5 -14t-83.5 -15q-115 -4 -196 44.5z" />
    <glyph glyph-name="D" unicode="D" horiz-adv-x="656" 
d="M475 650.5q80 -50.5 120.5 -131t40.5 -171.5t-40.5 -171t-121 -129t-194.5 -49h-81h-179v5q30 2 38 12.5t8 22.5v621q0 13 -8 23t-38 12v5h143h36l84 1q112 0 192 -50.5zM430 55.5q62 46.5 93 122.5t31 163q0 89 -31.5 169t-93 130t-146.5 51q-93 0 -128 -18
q-2 -5 -2 -13v-621q0 -6 1 -11q22 -11 60.5 -15t64.5 -4q89 0 151 46.5zM139 42l0.5 -0.5l0.5 -0.5z" />
    <glyph glyph-name="E" unicode="E" horiz-adv-x="538" 
d="M196 17.5q30 -8.5 69 -8.5q80 0 152.5 31t91.5 87h9l-36 -128h-462v5q30 2 38 12.5t8 22.5v621q0 13 -8 23t-38 12v5h462l36 -128h-9q-16 57 -87.5 88t-152.5 31q-40 0 -71 -8.5t-45 -24.5v-294h226q12 0 17.5 21.5t5.5 36.5h7v-121h-7q0 15 -5.5 34t-17.5 19h-226v-313
q13 -15 43 -23.5z" />
    <glyph glyph-name="F" unicode="F" horiz-adv-x="538" 
d="M518 573h-9q-12 36 -52 62t-93 39.5t-104 13.5q-37 0 -66 -7.5t-41 -22.5v-294h226q12 0 17.5 21.5t5.5 36.5h7v-121h-7q0 15 -5.5 34t-17.5 19h-226v-315q0 -12 8 -22.5t38 -12.5v-5h-179v5q30 2 38 12.5t8 22.5v621q0 13 -8 23t-38 12v5h62l-1 1h401z" />
    <glyph glyph-name="G" unicode="G" horiz-adv-x="626" 
d="M181 37q-80 48 -120 128.5t-40 173.5q0 95 41 179.5t121 136.5t192 51q66 0 128 -29l18 16l33 -156h-9q-22 74 -67.5 114t-115.5 40q-77 0 -133.5 -49.5t-86 -130t-29.5 -169.5q0 -88 28.5 -164.5t86.5 -123t141 -46.5q49 1 84 21.5t35 51.5v184q0 11 -36.5 17t-57.5 6v7
h212v-7q-11 0 -22 -5.5t-11 -17.5v-265l-59 26q-26 -14 -67.5 -23t-71.5 -10q-114 -4 -194 44z" />
    <glyph glyph-name="H" unicode="H" horiz-adv-x="594" 
d="M528 39q0 -12 8 -22.5t38 -12.5v-5h-179v5q30 2 38 12.5t8 22.5v329h-288v-329q0 -12 8 -22.5t38 -12.5v-5h-179v5q30 2 38 12.5t8 22.5v621q0 13 -8 23t-38 12v5h179v-5q-30 -2 -38 -12t-8 -23v-282h288v282q0 12 -8 22.5t-38 12.5v5h179v-5q-30 -2 -38 -12t-8 -23v-621
z" />
    <glyph glyph-name="I" unicode="I" horiz-adv-x="219" 
d="M153 39q0 -12 8 -22.5t38 -12.5v-5h-179v5q30 2 38 12.5t8 22.5v621q0 13 -8 23t-38 12v5h179v-5q-30 -2 -38 -12t-8 -23v-621z" />
    <glyph glyph-name="J" unicode="J" horiz-adv-x="484" 
d="M464 700v-5q-46 -3 -46 -33l1 -432q0 -80 -10.5 -125t-56.5 -75t-146 -30q-109 0 -147.5 41.5t-38.5 114.5l88 2q0 -66 18.5 -107.5t79.5 -41.5q55 0 82.5 29.5t35.5 76t8 115.5v430q0 13 -8 23t-38 12v5h178z" />
    <glyph glyph-name="K" unicode="K" horiz-adv-x="672" 
d="M598.5 26q28.5 -21 53.5 -20v-5h-194v4q26 3 26 19q0 12 -15 33l-233 342l-83 -85v-275q0 -12 8 -22.5t38 -12.5v-5h-179v5q30 2 38 12.5t8 22.5v621q0 13 -8 23t-38 12v5h179v-5q-30 -2 -38 -12t-8 -23v-332l315 321q10 11 10 22q0 18 -30 24v4h118v-5
q-27 -3 -46.5 -15.5t-40.5 -33.5l-188 -191l257 -374q22 -33 50.5 -54z" />
    <glyph glyph-name="L" unicode="L" horiz-adv-x="540" 
d="M520 127l-36 -128h-464v5q30 2 38 12.5t8 22.5v621q0 13 -8 23t-38 12v5h179v-5q-30 -2 -38 -12t-8 -23v-616q12 -17 43 -26t72 -9q50 0 102 13.5t90.5 40.5t50.5 64h9z" />
    <glyph glyph-name="M" unicode="M" horiz-adv-x="811" 
d="M791 6v-5h-179v5q30 2 38 12.5t8 22.5l3 611l-219 -616q4 -12 14 -36h-98l-253 639l-4 -585q0 -18 13.5 -32.5t36.5 -18.5v-4l-113 1v5q27 4 39.5 17t12.5 32l2 607q-22 27 -72 34v5h163q57 -160 252 -646l227 646h125v-5q-14 -2 -26 -10.5t-15 -24.5l-1 -621
q0 -30 46 -33z" />
    <glyph glyph-name="N" unicode="N" horiz-adv-x="587" 
d="M530.5 678.5q-13.5 -14.5 -13.5 -32.5v-618l16 -29l-93 1l-350 627l-4 -573q0 -18 13.5 -32.5t36.5 -18.5v-4l-113 1v5q27 4 39.5 17t12.5 32l2 597q-12 23 -22.5 32t-34.5 12v5h127l357 -648l2 594q0 19 -12.5 32t-39.5 17v5l113 1v-4q-23 -4 -36.5 -18.5z" />
    <glyph glyph-name="O" unicode="O" horiz-adv-x="704" 
d="M361 -10q-106 0 -183 54.5t-117.5 142.5t-40.5 185q0 86 33 160.5t99.5 123t162.5 56.5q10 1 30 1q104 0 181 -55.5t117.5 -144.5t40.5 -186q0 -83 -30.5 -155t-93 -120t-153.5 -59q-24 -3 -46 -3zM495.5 45.5q45.5 42.5 68 112.5t22.5 153q0 100 -32 192t-93.5 148
t-146.5 50q-64 -4 -107.5 -45.5t-64.5 -107.5t-21 -144q0 -98 32 -190.5t91.5 -151.5t139.5 -59q66 0 111.5 42.5z" />
    <glyph glyph-name="P" unicode="P" horiz-adv-x="563" 
d="M432.5 671q54.5 -30 82.5 -78t28 -102t-27.5 -101.5t-82.5 -76.5t-132 -29h-148v-245q0 -12 8 -22.5t38 -12.5v-5h-179v5q30 2 38 12.5t8 22.5v621q0 13 -8 23t-38 12v5h120l161 1q77 0 131.5 -30zM387.5 327q35.5 28 53.5 71.5t18 92.5q0 52 -19 97.5t-56 73.5t-89 28
q-32 0 -78.5 -7t-63.5 -21v-2v0v-365q25 1 87 1h61q51 3 86.5 31z" />
    <glyph glyph-name="Q" unicode="Q" horiz-adv-x="831" 
d="M786 -110q-37 -50 -74 -71.5t-75 -21.5q-34 0 -66.5 13t-83.5 39q-52 28 -87.5 42t-73.5 14q-27 0 -54 -9q41 32 69.5 51.5t66.5 42.5q-10 -1 -31 -1q-114 0 -194.5 52t-121.5 135.5t-41 177.5q0 90 38 168.5t112.5 126.5t180.5 48t182.5 -53.5t116 -139.5t39.5 -181
q0 -76 -26 -143.5t-78.5 -116.5t-128.5 -66q-33 -15 -60 -31.5t-73 -47.5q37 18 78 18q36 0 70 -11.5t84 -33.5q46 -20 74.5 -30t56.5 -10q51 0 90 38zM496.5 49.5q50.5 47.5 76 123.5t25.5 162q0 91 -28 171t-84.5 129.5t-137.5 49.5q-74 0 -126 -44.5t-77.5 -117.5
t-25.5 -157q0 -93 30 -176.5t88.5 -135.5t138.5 -52q70 0 120.5 47.5z" />
    <glyph glyph-name="R" unicode="R" horiz-adv-x="663" 
d="M590.5 27q24.5 -18 52.5 -22v-5h-193v4q27 3 27 19q0 12 -16 33l-178 228h-130v-243q0 -12 8 -22.5t38 -12.5v-5h-179v5q30 2 38 12.5t8 22.5v619q0 13 -8 23t-38 12v5h120l161 1q77 0 131.5 -30t82.5 -78t28 -102q0 -70 -45 -126t-127 -74l168 -212q27 -34 51.5 -52z
M153 295q25 1 87 1h61q50 3 85.5 32t54 73.5t18.5 94.5q0 51 -19 95t-56 71.5t-89 27.5q-32 0 -78.5 -7t-63.5 -21v-2v0v-365z" />
    <glyph glyph-name="S" unicode="S" horiz-adv-x="518" 
d="M29 155q21 -73 76 -109.5t137 -36.5q44 0 78.5 20.5t53.5 54t19 71.5q0 36 -18 69q-19 33 -55.5 56t-98.5 53q-60 28 -97 51t-62 58.5t-25 84.5q0 51 33 90.5t87.5 61t116.5 21.5q38 0 80.5 -7.5t62.5 -17.5l27 22l23 -133h-9q-13 61 -57 94t-105 33q-50 0 -87 -17.5
t-56 -47t-19 -63.5q0 -18 6 -36q12 -42 51.5 -71t113.5 -65q75 -37 118.5 -68t61.5 -77q13 -36 13 -66q0 -47 -25 -87t-74.5 -65.5t-121.5 -28.5l-32 -1q-58 0 -103 9t-70 25l-33 -33l-19 156h9z" />
    <glyph glyph-name="T" unicode="T" horiz-adv-x="574" 
d="M554 573h-9q-17 52 -73.5 83t-121.5 35q-20 -9 -20 -30v-621q0 -12 8 -22.5t38 -12.5v-5h-178v5q30 2 38 12.5t8 22.5v621q0 23 -22 30q-65 -4 -120.5 -34.5t-72.5 -82.5h-9l36 128l462 -1z" />
    <glyph glyph-name="U" unicode="U" horiz-adv-x="615" 
d="M595 700v-4q-14 0 -34.5 -6.5t-20.5 -18.5v-420q0 -79 -14 -132t-59.5 -87t-133.5 -35q-113 -2 -190.5 44t-77.5 188l1 433q0 30 -46 33v5h179v-5q-30 -2 -38 -12t-8 -23v-431q0 -221 178 -219q84 0 126.5 31t56 81t14.5 127l2 422q0 12 -20.5 19t-33.5 7v4z" />
    <glyph glyph-name="V" unicode="V" horiz-adv-x="748" 
d="M728 700v-5q-49 -6 -64 -49l-211 -626l8 -20h-85l-272 641q-19 46 -84 54v5h206v-4q-19 -4 -29.5 -15t-10.5 -24q0 -7 3 -13l256 -607l208 613q2 6 2 9q0 13 -12.5 23t-32.5 14v4h118z" />
    <glyph glyph-name="W" unicode="W" horiz-adv-x="1158" 
d="M232 700v-4q-19 -4 -29 -15t-10 -25q0 -4 2 -12l193 -604l195 591l-4 10q-11 28 -21.5 39.5t-37.5 14.5v5h188v-4h-2v-1l-5 -1q-15 -4 -23.5 -14.5t-8.5 -23.5q0 -4 2 -12l223 -597l169 603q1 3 1 9q0 14 -11.5 23.5t-32.5 13.5v4h118v-5q-28 -4 -43.5 -17t-20.5 -32
l-172 -628l7 -18h-93l-227 614l-195 -594l6 -20h-91l-205 641q-15 45 -84 54v5h212z" />
    <glyph glyph-name="X" unicode="X" horiz-adv-x="677" 
d="M612.5 22q17.5 -13 44.5 -17v-5h-206v4q17 3 26 11t9 18q0 9 -5 16l-169 258l-188 -263q-5 -8 -5 -13q0 -10 8.5 -17t24.5 -10v-4h-118v5q49 6 79 47l190 268l-209 319q-18 27 -33 40t-41 16v5h206v-4q-18 -4 -28.5 -13t-10.5 -21q0 -7 5 -15l165 -251l187 263q3 6 3 12
q0 19 -33 25v4h118v-5q-28 -4 -44.5 -14t-30.5 -29l-191 -269l214 -325q15 -23 32.5 -36z" />
    <glyph glyph-name="Y" unicode="Y" horiz-adv-x="606" 
d="M586 700v-5q-27 -3 -39.5 -14.5t-24.5 -34.5l-167 -328v-276q0 -12 8 -22.5t38 -12.5v-5h-179v5q46 3 46 32l-1 267l-163 335q-12 25 -32.5 37.5t-51.5 16.5v5h213v-4q-18 -4 -29 -14t-11 -23q0 -7 3 -15l152 -313l163 319q2 6 2 9q0 13 -12.5 23t-32.5 14v4h118z" />
    <glyph glyph-name="Z" unicode="Z" horiz-adv-x="523" 
d="M503 148l-36 -148h-430v12l348 626q-4 24 -34 36.5t-76 12.5q-50 0 -102 -14.5t-92 -43t-52 -67.5h-9l36 138h374h53l3 -42l-345 -628q27 -13 78 -13q54 0 113 15.5t104 45.5t58 70h9z" />
    <glyph glyph-name="bracketleft" unicode="[" horiz-adv-x="323" 
d="M303 691h-195l-1 -830h196v-10h-283l1 850h282v-10z" />
    <glyph glyph-name="backslash" unicode="\" horiz-adv-x="413" 
d="M20 700h81l292 -831h-83z" />
    <glyph glyph-name="bracketright" unicode="]" horiz-adv-x="323" 
d="M302 701l1 -850h-283v10h196l-1 830h-195v10h282z" />
    <glyph glyph-name="asciicircum" unicode="^" horiz-adv-x="387" 
d="M20 485l129 215l94 -1l124 -214l-74 1l-96 171l-106 -173z" />
    <glyph glyph-name="underscore" unicode="_" horiz-adv-x="422" 
d="M20 -68v38h382v-39z" />
    <glyph glyph-name="a" unicode="a" horiz-adv-x="544" 
d="M500 11q15 -6 24 -6v-5l-131 1v46q-92 -52 -184 -52q-54 0 -97 18.5t-67.5 51.5t-24.5 75q0 71 56.5 114t161.5 68q126 28 150 73q-9 49 -36.5 76t-83.5 27q-27 0 -48 -10.5t-21 -31.5q0 -9 2 -14q2 -8 2 -10q0 -13 -11 -20.5t-25 -7.5q-15 0 -25 7.5t-10 21.5
q0 43 43 59.5t103 16.5q86 0 130.5 -26.5t58.5 -71.5t14 -115l-1 -270q5 -9 20 -15zM125.5 74.5q17.5 -27.5 50 -44.5t74.5 -17q69 0 143 44l1 239q0 56 -4 82q-23 -37 -116 -63q-84 -24 -128 -70t-40 -112q2 -31 19.5 -58.5z" />
    <glyph glyph-name="b" unicode="b" horiz-adv-x="556" 
d="M289 507q78 0 133.5 -36t84.5 -94t29 -124q0 -67 -30 -126t-90.5 -95.5t-146.5 -36.5q-36 0 -69 9.5t-53 18.5l-82 -22l1 713q0 30 -46 33v5h179v-5q-30 -2 -38 -12t-8 -23v-257q15 16 44 32.5t71 18.5zM364.5 41.5q43.5 36.5 66 94t22.5 122.5q0 62 -21 116.5t-62.5 88
t-100.5 33.5q-45 0 -73 -19t-43 -40l-1 -372q11 -25 38.5 -42.5t68.5 -17.5q62 0 105.5 36.5z" />
    <glyph glyph-name="c" unicode="c" horiz-adv-x="481" 
d="M134.5 416.5q-32.5 -59.5 -32.5 -137.5q0 -67 23 -129t66.5 -101.5t100.5 -39.5q68 0 105.5 31.5t55.5 70.5h8q-14 -39 -52 -74.5t-108 -42.5q-26 -2 -37 -2q-77 0 -132.5 36.5t-83.5 95.5t-28 126q0 60 23.5 114.5t70.5 92.5t115 48q19 3 38 3q59 0 91 -16l34 -17l24 16
l18 -104h-9q-17 52 -58.5 80.5t-92.5 28.5q-26 0 -45 -5q-62 -15 -94.5 -74.5z" />
    <glyph glyph-name="d" unicode="d" horiz-adv-x="587" 
d="M521 715l1 -688q4 -10 20 -16.5t25 -6.5v-5l-132 1v39q-24 -16 -65.5 -30.5t-93.5 -14.5q-83 0 -141 33.5t-86.5 88.5t-28.5 119q0 68 31 128.5t91.5 98.5t144.5 38q55 0 92.5 -15.5t54.5 -30.5v259q0 13 -8 23t-38 12v5h179v-5q-46 -3 -46 -33zM388 29q37 24 47 62
l-1 335q-16 20 -49.5 40.5t-84.5 21.5q-60 1 -104 -34.5t-67.5 -94t-23.5 -123.5q0 -61 21.5 -113.5t65 -85t107.5 -32.5q52 0 89 24z" />
    <glyph glyph-name="e" unicode="e" horiz-adv-x="481" 
d="M460 113q-13 -42 -49 -77.5t-111 -42.5q-22 -2 -31 -2q-77 0 -133.5 39t-86 101.5t-29.5 131.5q0 61 23 114.5t70 89t116 43.5q22 2 33 2q54 0 95 -21t64 -55.5t26 -72.5q-61 -28 -163 -78t-166 -83q20 -82 67.5 -136t114.5 -54q68 -1 105.5 31.5t46.5 69.5h8zM143.5 443
q-36.5 -59 -36.5 -146q0 -44 9 -86l273 137q-3 39 -21 74.5t-48.5 57.5t-69.5 22q-70 0 -106.5 -59z" />
    <glyph glyph-name="f" unicode="f" horiz-adv-x="406" 
d="M375 654q-11 -9 -25 -9t-23.5 7.5t-9.5 21.5q0 31 -11 47t-40 16q-51 0 -75.5 -29.5t-31 -75t-6.5 -116.5v-77h103q12 0 17.5 21.5t5.5 36.5h7v-121h-7q0 15 -5.5 34t-17.5 19h-103v-389q0 -12 8 -22.5t38 -12.5v-5h-179v5q46 3 46 32l-1 479q0 71 14.5 120t58.5 79.5
t128 30.5q50 0 85 -17t35 -50q0 -16 -11 -25z" />
    <glyph glyph-name="g" unicode="g" horiz-adv-x="541" 
d="M518 -129q0 -49 -28.5 -96t-83.5 -76.5t-131 -28.5q-61 0 -104.5 23t-65.5 60.5t-22 82.5q0 58 35 111h7q-26 -43 -26 -85q0 -58 48.5 -95t129.5 -37q51 0 104 21t88 56t35 73q0 17 -7 32q-16 35 -91 35q-27 0 -91 -6q-58 -7 -97 -7q-56 0 -86 19t-26 66q2 25 29 39
t62 20q-53 10 -92 42.5t-59.5 78.5t-20.5 96q0 51 22 96t66.5 75t109.5 35q45 3 86 -8q20 15 47 26.5t56 11.5q32 0 50 -12.5t18 -29.5q0 -12 -10.5 -21t-29.5 -9q-13 0 -17.5 7.5t-6.5 21.5q-1 12 -3 18t-9 8q-6 3 -15 3q-30 0 -71 -27q69 -22 108.5 -82t39.5 -130
q0 -76 -48 -133t-140 -69q-23 -3 -40 -2q-45 -4 -82 -19t-37 -41q0 -22 37 -22q17 0 75 8q74 12 120 12q60 0 102 -21.5t58 -75.5q7 -20 7 -44zM144 433q-32 -54 -32 -130q0 -54 16.5 -103t49.5 -80t78 -31q64 0 96.5 49t32.5 121q0 55 -19 108t-53 86.5t-78 33.5
q-59 0 -91 -54z" />
    <glyph glyph-name="h" unicode="h" horiz-adv-x="517" 
d="M497 5v-5h-178v5q30 2 38 12.5t8 22.5v247q0 106 -17 154t-65 48q-39 0 -73 -24.5t-57 -69.5l1 -355q0 -12 8 -22.5t38 -12.5v-5h-179v5q46 3 46 33l-1 675q0 13 -8 23t-38 12v5h179v-5q-46 -3 -46 -33v-300q24 37 57 62.5t76 27.5q70 4 106 -21.5t48.5 -73t11.5 -123.5
l-1 -250q0 -29 46 -32z" />
    <glyph glyph-name="i" unicode="i" horiz-adv-x="219" 
d="M64.5 569.5q-14.5 14.5 -14.5 34.5t14.5 34.5t34.5 14.5t34.5 -14.5t14.5 -34.5t-14.5 -34.5t-34.5 -14.5t-34.5 14.5zM161 17.5q8 -10.5 38 -12.5v-5h-179v5q46 3 46 32l-1 435q-4 10 -20 16.5t-25 6.5v5l132 -1v-15l1 -444q0 -12 8 -22.5z" />
    <glyph glyph-name="j" unicode="j" horiz-adv-x="215" 
d="M101.5 569.5q-14.5 14.5 -14.5 34.5t14.5 34.5t34.5 14.5t34.5 -14.5t14.5 -34.5t-14.5 -34.5t-34.5 -14.5t-34.5 14.5zM-66.5 -185q-39.5 15 -39.5 44q0 7 3 15q3 12 13 18.5t22 6.5t22 -7t14 -19q2 -4 0.5 -15t-1.5 -19q0 -30 39 -30q44 0 65 29.5t26.5 74.5t5.5 117
v442q-4 10 -20 16.5t-25 6.5v5l132 -1v-25l1 -444q0 -75 -10 -122t-48 -77.5t-116 -30.5q-44 0 -83.5 15z" />
    <glyph glyph-name="k" unicode="k" horiz-adv-x="567" 
d="M492.5 24.5q27.5 -19.5 54.5 -18.5v-5h-184v4q26 3 26 18q0 8 -6.5 19.5t-8.5 14.5l-163 261l-57 -53v-225q0 -12 8 -22.5t38 -12.5v-5h-179v5q46 3 46 33l-1 675q0 13 -8 23t-38 12v5h179v-5q-46 -3 -46 -33l1 -435l183 170q10 11 10 22q0 18 -30 24v4h118v-5
q-26 -3 -45.5 -15.5t-41.5 -33.5l-84 -78l179 -288q22 -36 49.5 -55.5z" />
    <glyph glyph-name="l" unicode="l" horiz-adv-x="220" 
d="M162 17.5q8 -10.5 38 -12.5v-5h-179v5q46 3 46 33l-1 675q0 13 -8 23t-38 12v5h179v-5q-46 -3 -46 -33l1 -675q0 -12 8 -22.5z" />
    <glyph glyph-name="m" unicode="m" horiz-adv-x="805" 
d="M785 5v-5h-179v5q30 2 38 12.5t8 22.5v247q0 76 -5.5 118.5t-23.5 65t-53 22.5q-41 0 -73 -27.5t-46 -77.5l1 -101l-1 -250q0 -29 46 -32v-5h-179v5q30 2 38 12.5t8 22.5v247q0 107 -17 156.5t-65 49.5q-38 0 -73 -26.5t-57 -71.5l1 -355q0 -12 8 -22.5t38 -12.5v-5h-179
v5q46 3 46 32l-1 435q-4 10 -20 16.5t-25 6.5v5l132 -1v-84q58 91 142 91q61 0 103 -29.5t46 -82.5q37 108 127 112q75 4 112 -20.5t48 -71t10 -127.5l-1 -250q0 -29 46 -32z" />
    <glyph glyph-name="n" unicode="n" horiz-adv-x="516" 
d="M496 5v-5h-178v5q30 2 38 12.5t8 22.5v247q0 106 -17 154t-65 48q-39 0 -73 -24.5t-57 -70.5l1 -354q0 -12 8 -22.5t38 -12.5v-5h-179v5q46 3 46 32l-1 435q-4 10 -20 16.5t-25 6.5v5l132 -1v-84q57 85 133 90l21 1q62 0 93.5 -26.5t42 -73t9.5 -119.5l-1 -250
q0 -29 46 -32z" />
    <glyph glyph-name="o" unicode="o" horiz-adv-x="553" 
d="M280 -13q-81 0 -140 39t-89.5 101.5t-30.5 131.5q0 67 28.5 125t86 93.5t141.5 35.5q81 0 139 -38.5t88 -101t30 -131.5q0 -61 -24 -115.5t-71.5 -91.5t-116.5 -45q-21 -3 -41 -3zM412.5 72q32.5 64 32.5 152q0 70 -21 133.5t-62 104t-98 40.5q-75 0 -114 -62.5
t-39 -153.5q0 -71 23 -137t66 -108t100 -42q13 0 20 1q60 8 92.5 72z" />
    <glyph glyph-name="p" unicode="p" horiz-adv-x="587" 
d="M445 477q61 -36 91.5 -96t30.5 -128q0 -67 -30 -126.5t-90 -96t-144 -35.5q-56 1 -93.5 17.5t-56.5 35.5v-266q0 -13 8 -23t38 -12v-5h-179v5q46 3 46 33l-1 690q-4 10 -20 16.5t-25 6.5v5l132 -1v-38q24 18 61.5 34.5t85.5 17.5q85 2 146 -34zM396 40.5q39 35.5 59 93.5
t20 123q0 64 -20 119.5t-60.5 90t-98.5 34.5q-53 0 -93 -27.5t-51 -67.5l1 -340q20 -23 56.5 -41.5t93.5 -19.5q54 0 93 35.5z" />
    <glyph glyph-name="q" unicode="q" horiz-adv-x="573" 
d="M528 -246.5q16 -6.5 25 -6.5v-5l-132 1v312q-18 -24 -56.5 -42.5t-104.5 -18.5q-76 0 -130.5 36.5t-82 95.5t-27.5 125t28 124.5t83.5 94.5t134.5 36q51 0 92 -15.5t64 -32.5v19l87 23l-1 -730q4 -10 20 -16.5zM367.5 25.5q36.5 22.5 53.5 51.5l1 329q-11 40 -51 65.5
t-96 24.5q-58 0 -98 -34t-60 -88.5t-20 -116.5q0 -63 20.5 -120.5t59.5 -93.5t94 -38q60 -2 96.5 20.5z" />
    <glyph glyph-name="r" unicode="r" horiz-adv-x="390" 
d="M302 505q32 0 50 -15t18 -33q0 -13 -9 -21.5t-25 -8.5q-21 0 -27 9t-8 27q-1 14 -4.5 21t-16.5 7q-31 0 -68.5 -36.5t-59.5 -75.5l1 -339q0 -12 8 -22.5t38 -12.5v-5h-179v5q46 3 46 32l-1 435q-4 10 -20 16.5t-25 6.5v5l132 -1v-105q21 37 59 71.5t73 38.5q7 1 18 1z
" />
    <glyph glyph-name="s" unicode="s" horiz-adv-x="410" 
d="M113.5 1q-36.5 10 -51.5 20l-28 -24l-14 121h10q16 -55 59 -85.5t102 -30.5q48 0 78.5 29t30.5 70q0 31 -19 60q-13 21 -38 36t-72 36q-49 22 -78 39t-49 43t-20 63q1 58 53 93.5t127 35.5q30 0 55 -5.5t55 -14.5l24 16l25 -98h-13q-11 41 -43 67t-75 26t-72 -17
t-42 -44.5t-9 -58.5q3 -31 34 -52t94 -50q59 -27 92.5 -47.5t48.5 -50.5q12 -25 12 -53q0 -35 -21.5 -65.5t-65 -49.5t-106.5 -19q-47 0 -83.5 10z" />
    <glyph glyph-name="t" unicode="t" horiz-adv-x="315" 
d="M99 30.5q-24 32.5 -30 80.5t-6 125l1 258h-44v11q39 10 74 44t46 66h11v-111h52v-10h-52v-258q0 -106 13 -163.5t55 -57.5q25 0 40 14.5t29 39.5h7q-13 -37 -47.5 -54t-74.5 -17q-50 0 -74 32.5z" />
    <glyph glyph-name="u" unicode="u" horiz-adv-x="516" 
d="M450 462l1 -435q4 -10 20 -16.5t25 -6.5v-5l-131 1v84q-55 -85 -133 -90l-19 -1q-62 0 -94.5 26.5t-43.5 73t-10 119.5l1 250q0 29 -46 32v5h179v-5q-30 -2 -38 -12t-8 -23v-247q0 -106 17 -154t65 -48q39 0 73 24.5t57 70.5l-1 354q0 13 -8 23t-38 12v5h178v-5
q-46 -3 -46 -32z" />
    <glyph glyph-name="v" unicode="v" horiz-adv-x="565" 
d="M545 498v-5q-51 -7 -64 -49l-128 -425l7 -19h-88l-168 441q-18 46 -84 54v5h206v-4q-19 -4 -29 -15t-10 -25q0 -8 2 -12l156 -406l125 410q2 6 2 9q0 13 -12.5 23.5t-32.5 14.5v4z" />
    <glyph glyph-name="w" unicode="w" horiz-adv-x="917" 
d="M226 500v-4q-19 -4 -29 -15t-10 -25q0 -8 2 -12l156 -406l118 387l-6 16q-16 45 -84 54v5h205v-2h1v-5q-11 -1 -22 -5q-18 -12 -18 -32q0 -8 2 -12l156 -406l125 410q2 6 2 9q0 13 -12.5 23.5t-32.5 14.5v4l118 -1v-5q-51 -7 -64 -49l-128 -425l7 -19h-87l-155 407
l-117 -388l7 -19h-88l-168 441q-18 46 -84 54v5h206z" />
    <glyph glyph-name="x" unicode="x" horiz-adv-x="510" 
d="M490 5v-5h-205v4q38 8 38 31q0 7 -4 14l-90 159l-117 -164q-5 -8 -5 -14q0 -9 8.5 -16t24.5 -10v-4h-118v5q51 7 79 47l120 170l-122 216q-17 25 -34 39t-44 17v5h205v-4q-19 -4 -31.5 -14t-12.5 -22q0 -5 4 -13l86 -152l117 165q3 6 3 12q0 19 -33 25v4h118v-5
q-28 -4 -45 -14.5t-30 -28.5l-122 -171l127 -223q26 -46 83 -53z" />
    <glyph glyph-name="y" unicode="y" horiz-adv-x="553" 
d="M533 498v-5q-51 -7 -64 -49l-91 -303q-54 -183 -89 -271.5t-67.5 -122t-78.5 -33.5q-25 0 -39 10t-14 24q0 11 11.5 19.5t32.5 8.5q6 0 20 -2q16 -2 22 -2q31 0 52 18.5t40.5 59.5t44.5 119l-218 472q-11 25 -28.5 37.5t-46.5 16.5v5l204 2v-4q-18 -4 -29 -14.5
t-11 -24.5q0 -7 3 -13l160 -365l9 30l9 31l93 306q2 6 2 9q0 13 -12.5 23.5t-32.5 14.5v4z" />
    <glyph glyph-name="z" unicode="z" horiz-adv-x="526" 
d="M506 128l-36 -128h-421v12l314 434q-9 20 -39 31.5t-71 11.5q-73 0 -139.5 -31.5t-84.5 -87.5h-9l36 128h355h53l3 -42l-312 -429q36 -17 95 -17q51 0 104 13.5t92 40.5t51 64h9z" />
    <glyph glyph-name="braceleft" unicode="{" horiz-adv-x="334" 
d="M276 -168q-70 0 -104 33t-43 79.5t-12 123.5q-2 64 -7.5 101t-26 63t-63.5 29v11q43 3 64 29t26.5 63.5t8.5 102.5q3 77 11.5 123.5t42 79t101.5 32.5q25 0 39 -2v-9q-5 1 -14 1q-42 0 -62 -28.5t-25.5 -70t-7.5 -112.5q-2 -66 -6.5 -106t-21 -70.5t-50.5 -37.5
q34 -7 50.5 -36.5t21 -69.5t6.5 -106q3 -75 9.5 -118.5t29.5 -71.5t71 -22v-9q-14 -2 -38 -2z" />
    <glyph glyph-name="bar" unicode="|" horiz-adv-x="128" 
d="M20 701h87l1 -850h-87z" />
    <glyph glyph-name="braceright" unicode="}" horiz-adv-x="334" 
d="M34 -158q41 0 61.5 29t26 70.5t8.5 113.5q2 66 6.5 106t21 70t50.5 36q-34 7 -50.5 37.5t-21 70.5t-6.5 106q-2 73 -8.5 116.5t-29.5 71.5t-71 22v9q26 2 37 2q69 0 102.5 -33t42.5 -79.5t12 -123.5q3 -65 8.5 -102t26.5 -63t64 -29v-11q-43 -3 -64 -29t-27 -64t-8 -101
q-3 -78 -12.5 -124t-43 -78.5t-102.5 -32.5q-24 0 -37 2v9q5 -1 14 -1z" />
    <glyph glyph-name="asciitilde" unicode="~" horiz-adv-x="426" 
d="M245.5 254.5q-20.5 9.5 -46.5 28.5q-20 15 -33 22t-30 7q-20 0 -29.5 -14.5t-11.5 -44.5l-75 2q4 54 33.5 77t64.5 23q31 0 52.5 -10.5t46.5 -29.5q20 -15 32 -21.5t27 -6.5q24 0 39 14t17 37l74 3q0 -50 -32 -73t-78 -23q-30 0 -50.5 9.5z" />
    <glyph glyph-name="uni00A0" unicode="&#xa0;" horiz-adv-x="200" 
 />
    <glyph glyph-name="exclamdown" unicode="&#xa1;" horiz-adv-x="179" 
d="M54 484.5q-14 13.5 -14 33.5t14 33.5t34 13.5q19 0 33 -14t14 -33t-14 -33t-33 -14q-20 0 -34 13.5zM20 -85q0 24 15 81q21 90 34.5 186t14.5 253h11q3 -153 16.5 -247.5t33.5 -182.5q6 -26 10 -48.5t4 -37.5q0 -24 -10 -48q-7 -15 -23.5 -23.5t-36.5 -8.5t-36 8t-23 23
q-10 21 -10 45z" />
    <glyph glyph-name="cent" unicode="&#xa2;" horiz-adv-x="493" 
d="M473 207q-15 -39 -52.5 -74.5t-107.5 -41.5q-7 -1 -22 -1v-90h-10v90q-82 0 -141 36.5t-89.5 95t-30.5 124.5q0 59 25 113t74.5 91t121.5 48q21 3 40 3v99h10v-99q57 -3 89.5 -21t35.5 -20l24 16l18 -104h-9q-18 54 -60.5 86.5t-97.5 34.5v-494q10 -1 22 0q67 5 100.5 36
t52.5 72h7zM138.5 509q-35.5 -63 -35.5 -145q0 -63 21 -121t61.5 -97.5t95.5 -45.5v493q-17 0 -40 -5q-67 -16 -102.5 -79z" />
    <glyph glyph-name="sterling" unicode="&#xa3;" horiz-adv-x="582" 
d="M530 0l-434 1l1 22q48 48 68.5 86.5t20.5 73.5q0 30 -12.5 58.5t-38.5 69.5l-20 33h-95v10h90q-19 35 -29.5 69.5t-10.5 74.5q0 19 1 29q5 56 42.5 96.5t98.5 60.5t134 17q52 -1 137 -33l26 22l21 -163h-9q-9 41 -36 77.5t-64.5 59t-75.5 24.5q-49 3 -90.5 -15.5
t-65 -52.5t-23.5 -75q0 -12 1 -18q3 -44 13.5 -83.5t29.5 -89.5h256v-10h-252q16 -43 24.5 -73t8.5 -59q0 -48 -31.5 -94.5t-107.5 -97.5q38 -3 80 -3q130 0 239 28.5t126 82.5h9z" />
    <glyph glyph-name="currency" unicode="&#xa4;" horiz-adv-x="463" 
d="M366 225l71 -65l-30 -30l-73 64q-45 -36 -107 -36q-52 0 -95 27l-71 -62l-29 29l66 61q-24 24 -37 56.5t-13 67.5q0 69 46 120l-72 66l30 30l77 -66q45 29 98 29q59 0 108 -36l75 65l29 -29l-73 -67q40 -48 40 -112t-40 -112zM130.5 241.5q36.5 -39.5 96.5 -39.5t99 40
t39 98q0 37 -17.5 68.5t-49 49.5t-71.5 18q-59 0 -96 -39t-37 -97q0 -59 36.5 -98.5z" />
    <glyph glyph-name="yen" unicode="&#xa5;" horiz-adv-x="606" 
d="M586 700v-5q-27 -3 -39.5 -14.5t-24.5 -34.5l-167 -328v-51h107v-10h-107v-64h107v-10h-107v-143q0 -12 8 -22.5t38 -12.5v-5h-179v5q46 3 46 32l-1 146h-117v10h117v64h-117v10h117v39l-163 335q-12 25 -32.5 37.5t-51.5 16.5v5h213v-4q-18 -4 -29 -14t-11 -23
q0 -7 3 -15l152 -313l163 319q2 6 2 9q0 13 -12.5 23t-32.5 14v4h118z" />
    <glyph glyph-name="section" unicode="&#xa7;" horiz-adv-x="413" 
d="M99.5 -100q-24.5 11 -27.5 12l-20 -18l-25 98h13q10 -43 44.5 -68t74.5 -25t74.5 14t55.5 38.5t21 53.5q0 27 -18 47.5t-44.5 35.5t-72.5 36q-61 29 -95.5 51t-49.5 54q-10 21 -10 45q0 34 19.5 65t55.5 52t83 26l-21 11q-43 22 -69 39t-43.5 44t-17.5 64q0 40 29 70
t74 45.5t92 15.5q31 0 51 -6t30.5 -11.5t13.5 -6.5l20 18l25 -98h-13q-10 44 -43.5 69.5t-77.5 25.5q-56 0 -90.5 -30.5t-34.5 -71.5q0 -5 2 -17q7 -32 38 -54t90 -48q57 -26 90.5 -47.5t48.5 -52.5q11 -24 11 -46q0 -34 -20.5 -67.5t-57 -57t-81.5 -29.5q16 -9 30 -14
q43 -21 70 -38t46 -43t19 -62q0 -39 -32 -69t-81.5 -45.5t-100.5 -15.5t-75.5 11zM282 224.5q32 34.5 32 73.5q0 20 -10 39q-9 16 -27 28t-37 21.5t-26 13.5l-21 8q-46 -3 -78 -32t-32 -67q0 -32 26 -61q11 -15 32.5 -27.5t41.5 -22.5l26 -13q41 5 73 39.5z" />
    <glyph glyph-name="copyright" unicode="&#xa9;" horiz-adv-x="889" 
d="M225 -45.5q-97 54.5 -151 147t-54 200.5t54 200t151 146t220 54q122 0 219 -54t151 -146t54 -200t-54 -200.5t-151 -147t-219 -54.5q-123 0 -220 54.5zM618.5 4q79.5 47 125.5 127t46 176q0 93 -46 171.5t-125.5 125t-173.5 46.5t-173.5 -46.5t-125.5 -125t-46 -171.5
q0 -96 46 -176t125.5 -127t173.5 -47t173.5 47zM465 56q-76 0 -130.5 36.5t-82.5 95.5t-28 126q0 59 22.5 113t67.5 93t109 51q27 5 45 5q58 0 90 -16l34 -17l24 16l18 -104h-9q-17 52 -58.5 80.5t-94.5 28.5q-19 0 -49 -7q-59 -16 -89 -72.5t-30 -132.5q0 -68 23.5 -131.5
t67 -103.5t100.5 -39q106 2 153 101h7q-15 -41 -52.5 -77.5t-107.5 -43.5q-20 -2 -30 -2z" />
    <glyph glyph-name="guillemotleft" unicode="&#xab;" horiz-adv-x="424" 
d="M20 262l153 181h82l-154 -181l154 -180h-82zM170 262l153 181h81l-154 -181l154 -180h-81z" />
    <glyph glyph-name="logicalnot" unicode="&#xac;" horiz-adv-x="367" 
d="M347 167h-59l-1 101l-267 1v51h325z" />
    <glyph glyph-name="uni00AD" unicode="&#xad;" 
d="M20 272v38h310v-39z" />
    <glyph glyph-name="registered" unicode="&#xae;" horiz-adv-x="484" 
d="M125.5 334.5q-50.5 29.5 -78 79t-27.5 107.5t29 107.5t79.5 79t112.5 29.5t113 -29t80.5 -79t29.5 -108q0 -61 -28 -110t-78.5 -77.5t-116.5 -28.5q-65 0 -115.5 29.5zM329.5 372.5q39.5 22.5 62.5 62t23 88.5q0 47 -23 87t-62.5 62.5t-87.5 22.5q-47 0 -86 -23.5
t-61.5 -63t-22.5 -85.5q0 -47 22.5 -86.5t61.5 -63t86 -23.5q48 0 87.5 22.5zM174.5 417.5q4.5 1.5 4.5 3.5v229q0 4 -7 7t-11 3v2h82q44 0 71 -24t27 -55q0 -23 -17 -41t-51 -24l60 -75q10 -12 17 -18t17 -8v-2h-70v2q8 1 8 7q0 3 -2 6.5t-3 5.5l-64 79h-22v-101h-53v2
q9 0 13.5 1.5zM232 520q33 0 50.5 20.5t17.5 49.5q0 26 -15 45t-42 20h-8q-15 0 -22 -6l1 -130q7 1 18 1z" />
    <glyph glyph-name="plusminus" unicode="&#xb1;" horiz-adv-x="363" 
d="M209 312h134v-46h-134v-75h-51v76h-138v45h139v71h50v-71zM20 113v47h323v-48z" />
    <glyph glyph-name="paragraph" unicode="&#xb6;" horiz-adv-x="524" 
d="M504 662h-39l1 -811h-86l-1 811l-126 1l1 -812h-87l-1 516q-45 0 -78.5 24t-50.5 63.5t-17 83.5q0 65 36.5 112.5t104.5 50.5h343v-39z" />
    <glyph glyph-name="periodcentered" unicode="&#xb7;" horiz-adv-x="139" 
d="M34.5 227.5q-14.5 14.5 -14.5 34.5t14.5 34.5t34.5 14.5t35 -14.5t15 -34.5t-15 -34.5t-35 -14.5t-34.5 14.5z" />
    <glyph glyph-name="guillemotright" unicode="&#xbb;" horiz-adv-x="424" 
d="M174 262l-154 181h82l153 -181l-153 -180h-82zM324 262l-154 181h81l153 -181l-153 -180h-81z" />
    <glyph glyph-name="questiondown" unicode="&#xbf;" horiz-adv-x="477" 
d="M287.5 479q-13.5 14 -13.5 33t13.5 32.5t32.5 13.5q20 0 34 -13.5t14 -32.5q0 -20 -14 -33.5t-34 -13.5q-19 0 -32.5 14zM90 -101q-69 53 -69 149q0 49 20.5 82.5t50 54.5t78.5 48q51 28 80 49t49 55t19 84h12q1 -9 1 -26q0 -50 -15 -84t-37 -54.5t-59 -46.5
q-34 -23 -55 -42.5t-35 -49.5t-14 -73q0 -75 40.5 -128.5t119.5 -53.5q39 0 77.5 22t66.5 59t37 79h9l-21 -163l-26 22q-83 -31 -137 -32q-123 -4 -192 49z" />
    <glyph glyph-name="multiply" unicode="&#xd7;" horiz-adv-x="307" 
d="M287 160l-28 -26l-105 111l-108 -113l-26 28l108 113l-108 115l28 26l107 -113l101 105l26 -28l-101 -105z" />
    <glyph glyph-name="divide" unicode="&#xf7;" 
d="M156.5 428.5q-10.5 10.5 -10.5 25.5q0 14 10.5 24.5t25.5 10.5q14 0 24.5 -10.5t10.5 -24.5q0 -15 -10.5 -25.5t-24.5 -10.5q-15 0 -25.5 10.5zM20 272v38h310v-39zM156.5 107.5q-10.5 10.5 -10.5 25.5q0 14 10.5 24.5t25.5 10.5q14 0 24.5 -10.5t10.5 -24.5
q0 -15 -10.5 -25.5t-24.5 -10.5q-15 0 -25.5 10.5z" />
    <glyph glyph-name="florin" unicode="&#x192;" horiz-adv-x="521" 
d="M268 551.5q23 65.5 70 107t126 41.5q11 0 37 -2v-10q-60 4 -93 -34.5t-46.5 -97t-27.5 -166.5h99v-10h-101q-16 -120 -39.5 -198t-80 -131.5t-158.5 -53.5q-22 0 -34 1v11q71 -3 110.5 39.5t56.5 107.5t33 175l8 50h-117v10h119q15 95 38 160.5z" />
    <glyph glyph-name="endash" unicode="&#x2013;" horiz-adv-x="490" 
d="M20 272v38h450v-39z" />
    <glyph glyph-name="emdash" unicode="&#x2014;" horiz-adv-x="813" 
d="M20 272v38h773v-39z" />
    <glyph glyph-name="quoteleft" unicode="&#x2018;" horiz-adv-x="152" 
d="M72 696h60l-29 -117l-83 -1z" />
    <glyph glyph-name="quoteright" unicode="&#x2019;" horiz-adv-x="152" 
d="M49 699l83 1l-52 -118h-60z" />
    <glyph glyph-name="quotesinglbase" unicode="&#x201a;" horiz-adv-x="191" 
d="M86.5 389.5q-14.5 14.5 -14.5 35.5q0 20 14.5 34.5t35.5 14.5q20 0 34.5 -14.5t14.5 -34.5q0 -21 -14.5 -35.5t-34.5 -14.5q-21 0 -35.5 14.5zM63 54l83 1l-66 -111h-60z" />
    <glyph glyph-name="quotedblleft" unicode="&#x201c;" horiz-adv-x="273" 
d="M72 696h60l-29 -117l-83 -1zM194 696h59l-15 -117l-82 -1z" />
    <glyph glyph-name="quotedblright" unicode="&#x201d;" horiz-adv-x="271" 
d="M33 699l82 1l-38 -118h-59zM168 699l83 1l-52 -118h-60z" />
    <glyph glyph-name="quotedblbase" unicode="&#x201e;" horiz-adv-x="191" 
d="M156.5 459.5q14.5 -14.5 14.5 -34.5q0 -21 -14.5 -35.5t-34.5 -14.5q-21 0 -35.5 14.5t-14.5 35.5q0 20 14.5 34.5t35.5 14.5q20 0 34.5 -14.5zM20 -56l43 110l83 1l-66 -111h-60z" />
    <glyph glyph-name="dagger" unicode="&#x2020;" 
d="M330 601v-48h-129v-258h-52l1 259h-130v47h130v137h51v-137h129z" />
    <glyph glyph-name="daggerdbl" unicode="&#x2021;" 
d="M330 577h-129v-109h129v-47h-129v-126h-51v127h-130v46h130l1 110h-131v46h131v114h50v-114h129v-47z" />
    <glyph glyph-name="bullet" unicode="&#x2022;" horiz-adv-x="225" 
d="M47 205.5q-27 27.5 -27 65.5t27.5 65t64.5 27q38 0 65.5 -27t27.5 -65t-27.5 -65.5t-65.5 -27.5t-65 27.5z" />
    <glyph glyph-name="ellipsis" unicode="&#x2026;" horiz-adv-x="111" 
d="M104.5 82.5q14.5 -14.5 14.5 -34.5t-14.5 -35t-34.5 -15q-21 0 -35.5 15t-14.5 35t14.5 34.5t35.5 14.5q20 0 34.5 -14.5z" />
    <glyph glyph-name="guilsinglleft" unicode="&#x2039;" horiz-adv-x="275" 
d="M20 262l153 181h82l-154 -181l154 -180h-82z" />
    <glyph glyph-name="guilsinglright" unicode="&#x203a;" horiz-adv-x="275" 
d="M174 262l-154 181h82l153 -181l-153 -180h-82z" />
    <glyph glyph-name="Euro" unicode="&#x20ac;" horiz-adv-x="635" 
d="M279.5 618q-66.5 -73 -88.5 -185h318v-10h-320q-8 -45 -8 -87q0 -13 2 -39h326v-10h-325q7 -77 38.5 -140t88 -101t134.5 -38q36 0 68.5 15t54 36t26.5 38h8l-13 -97l-27 24q-2 -1 -37.5 -13t-99.5 -12q-97 0 -168.5 39t-112 104.5t-50.5 144.5h-74v10h73q-2 14 -2 42
q0 41 8 84h-79v10h81q18 75 61.5 135.5t112 96.5t157.5 36t141 -24l18 16l24 -104h-9q-16 44 -60 73t-101 29q-99 0 -165.5 -73z" />
    <glyph glyph-name="minus" unicode="&#x2212;" 
d="M20 282v38h310v-39z" />
    <glyph glyph-name="approxequal" unicode="&#x2248;" horiz-adv-x="428" 
d="M248.5 279.5q-20.5 9.5 -46.5 28.5q-19 15 -33 22t-31 7q-20 0 -29 -14.5t-11 -44.5l-75 2q3 54 33 77t65 23q31 0 52.5 -10.5t46.5 -29.5q18 -14 31 -21t28 -7q24 0 38.5 13.5t17.5 37.5l73 4q0 -50 -32 -73.5t-78 -23.5q-29 0 -49.5 9.5zM245.5 136.5
q-20.5 9.5 -46.5 28.5q-20 15 -33 22t-30 7q-20 0 -29.5 -14.5t-11.5 -44.5l-75 2q4 53 33 76.5t63 23.5q31 0 52.5 -10.5t49.5 -30.5q19 -14 31 -20.5t27 -6.5q24 0 39 14t17 37l74 4q0 -50 -32.5 -73.5t-77.5 -23.5q-30 0 -50.5 9.5z" />
    <glyph glyph-name="notequal" unicode="&#x2260;" 
d="M330 331h-113l-36 -64h149v-39l-170 1l-44 -80h-50l45 80h-91v38h112l36 65h-148v38h170l43 77h48l-43 -77h92v-39z" />
    <glyph glyph-name="lessequal" unicode="&#x2264;" horiz-adv-x="391" 
d="M20 287v52l348 96l-2 -58l-274 -62l275 -52v-64zM20 160h351v-52l-351 -1v53z" />
    <glyph glyph-name="greaterequal" unicode="&#x2265;" horiz-adv-x="391" 
d="M24 265l275 52l-275 62l-1 59l348 -96v-53l-347 -88v64zM20 110v53h351v-54z" />
    <glyph glyph-name="lozenge" unicode="&#x25ca;" horiz-adv-x="443" 
d="M20 309l159 308h98l145 -307h1l-1 -2l1 -1h-1l-145 -307h-98zM344 309l-117 254l-126 -254l126 -249z" />
    <glyph glyph-name="K.ss01" unicode="&#xe009;" horiz-adv-x="676" 
d="M581 53q21 -24 39.5 -36t35.5 -11v-5h-194v4q26 3 26 16q0 7 -6.5 17.5t-8.5 14.5q-6 8 -45 58q-76 98 -122 165.5t-51 107.5l-1 13q0 44 37.5 74.5t121.5 67.5q53 23 79.5 50.5t26.5 51.5q0 12 -7 21t-19 14q-7 3 -17 3q-43 0 -104 -59.5t-119.5 -139t-99.5 -147.5v-294
q0 -12 8 -22.5t38 -12.5v-5h-179v5q30 2 38 12.5t8 22.5v621q0 13 -8 23t-38 12v5h179v-5q-30 -2 -38 -12t-8 -23v-301q88 144 180 246t167 102q26 0 46 -13q20 -11 31 -27t11 -34q0 -33 -34 -63.5t-100 -49.5q-118 -33 -118 -104q0 -12 5 -29q13 -42 84.5 -140.5
t129.5 -164.5q5 -5 26 -29z" />
    <glyph glyph-name="E.ss03" unicode="&#xe01f;" horiz-adv-x="577" 
d="M548 142q8 -10 8 -26q0 -24 -18 -50t-56 -46t-96 -25q-26 -2 -37 -2q-108 0 -184.5 50t-115.5 131t-39 174q0 95 41 179.5t122 136.5t195 52q27 0 57 -3q65 -8 94.5 -33.5t29.5 -60.5q0 -21 -9.5 -42t-24.5 -37q-34 -37 -34 -66q0 -20 17 -39q-14 -2 -19 -2q-25 0 -38 13
t-13 33q0 19 10 39.5t29 39.5q38 38 38 76q0 27 -21 45.5t-63 23.5q-22 2 -32 2q-84 0 -147 -50.5t-98 -132.5t-40 -174q20 -14 44 -14q20 0 41.5 7t51.5 20q37 15 60 22t46 7q44 0 76 -31v-10q-14 14 -34 14q-15 0 -31.5 -6t-45.5 -19q-37 -17 -63.5 -25.5t-54.5 -8.5
q-49 0 -91 34q-3 -88 25 -164.5t87 -123t146 -46.5q16 0 25 1q38 3 59 17.5t29 32.5t14 45t13 39t26 13q13 0 21 -10z" />
    <glyph glyph-name="K_Y" unicode="&#xe044;" horiz-adv-x="1107" 
d="M860 19.5q8 -10.5 38 -12.5v-5h-179v5q46 3 46 32l-1 272q-10 68 -41.5 159.5t-81 164t-110.5 82.5q-6 1 -19 1q-62 0 -129 -53t-118.5 -122t-64.5 -106q-3 -9 -3 -17q0 -23 21.5 -38.5t74.5 -41.5q62 -30 107 -58.5t90 -79t72 -123.5q14 -37 28.5 -56t39.5 -18v-5h-187
v4q30 6 30 33q0 5 -1.5 10.5t-1.5 8.5q-14 62 -46 108.5t-68 77t-88 66.5q-49 34 -71 55.5t-22 47.5q0 11 7 28q24 52 76 122.5t124 123.5t147 49q102 -4 165.5 -67.5t92.5 -139t51 -169.5l6 -27q0 70 17.5 128t41.5 99t60 92q34 49 48.5 76.5t14.5 56.5q0 28 -16 57
q-5 10 -5 18q0 14 11.5 23.5t26.5 9.5q12 0 22.5 -7.5t15.5 -22.5q6 -18 6 -34q0 -30 -17.5 -58t-56.5 -76q-47 -57 -78.5 -104t-55.5 -117t-27 -160v-270q0 -12 8 -22.5zM161 16.5q8 -10.5 38 -12.5v-5h-179v5q30 2 38 12.5t8 22.5v621q0 13 -8 23t-38 12v5h179v-5
q-30 -2 -38 -12t-8 -23v-621q0 -12 8 -22.5z" />
    <glyph glyph-name="N_O" unicode="&#xe04a;" horiz-adv-x="1191" 
d="M169 700q47 -171 92 -314.5t103.5 -264.5t109.5 -119q15 1 21.5 9.5t6.5 26.5q0 17 -7.5 50t-17.5 71q-22 85 -33 138q-12 59 -12 110q0 109 49 186t129 115.5t172 38.5q106 0 198.5 -50.5t138.5 -143.5q52 -106 52 -223q0 -90 -32.5 -166t-99 -122.5t-163.5 -48.5
q-108 -2 -186 50t-118.5 136t-40.5 176q0 71 24.5 133.5t74.5 105t122 54.5q26 5 59 5q75 0 128 -34t79.5 -85t26.5 -102q0 -19 -5 -39q-6 -21 -17.5 -31.5t-25.5 -10.5q-16 0 -27.5 12t-11.5 31q0 13 6 26q13 30 13 64q0 42 -20.5 78.5t-59.5 58t-91 21.5q-26 0 -47 -4
q-70 -13 -105 -78.5t-35 -159.5q0 -93 32.5 -186t91 -152t131.5 -58q67 1 114.5 47.5t71.5 121t24 161.5q0 113 -37 206q-37 92 -115.5 140.5t-171.5 48.5q-81 0 -152.5 -37t-115.5 -110.5t-44 -175.5q0 -50 12 -107q11 -49 28 -110q15 -53 22.5 -87t7.5 -59q0 -53 -45 -53
q-123 -4 -220 194t-163 443l-4 -572q0 -18 13.5 -32.5t36.5 -18.5v-4l-113 1v5q27 4 39.5 17t12.5 32l2 596q-12 23 -22.5 32t-34.5 12v5h149z" />
    <glyph glyph-name="ampersand.ss01" horiz-adv-x="741" 
d="M628.5 323q44.5 -29 67.5 -74.5t23 -96.5q0 -64 -37 -122.5t-112.5 -95t-186.5 -36.5q-117 0 -198.5 41.5t-122 107.5t-40.5 141q0 61 26.5 116t78.5 93.5t125 51.5q-51 30 -77 67.5t-26 75.5q0 41 28.5 75.5t82.5 55t126 20.5q58 0 99 -16t61 -41.5t20 -53.5
q0 -35 -30.5 -59.5t-83.5 -23.5q20 15 30 36t10 44q0 41 -29 72t-77 31q-61 0 -98.5 -35.5t-37.5 -87.5q0 -45 30 -88.5t90 -77.5q-72 4 -124 -31t-79 -95.5t-27 -129.5q0 -72 29.5 -135.5t88.5 -102t143 -37.5q71 1 120.5 33.5t74.5 85t25 110.5q0 54 -21 100.5t-62.5 75.5
t-98.5 29q-47 0 -80 -22t-49.5 -57t-16.5 -75q0 -58 33 -102.5t92 -50.5q-27 -5 -46 -5q-50 0 -87.5 22t-58 57.5t-20.5 75.5q0 45 26.5 84.5t82.5 64t140 23.5q81 -1 121 29t40 72q0 27 -15 50t-40 34l19 1q59 0 91 -24.5t32 -59.5q0 -28 -21 -54t-62 -41t-97 -12
q61 -4 105.5 -33z" />
    <glyph glyph-name="ee" horiz-adv-x="600" 
 />
    <glyph glyph-name="part_nol" horiz-adv-x="838" 
d="M196 314q-54 0 -94 30.5t-61.5 78.5t-21.5 100q0 74 41.5 125.5t118.5 51.5q52 0 89 -29.5t56 -76.5t19 -99q0 -70 -33.5 -122t-95.5 -58q-6 -1 -18 -1zM270 375q20 45 20 107q0 52 -13.5 99.5t-40.5 77.5t-65 30q-48 0 -73.5 -45.5t-25.5 -112.5q0 -54 17 -104t49 -79
t76 -23q36 5 56 50z" />
    </font>
</defs>
</svg>
